# xmcd
#
# Track frame offsets:
#	183
#	14358
#	28575
#	39483
#	54108
#	69483
#	84183
#	99033
#	108783
#	120783
#	133458
#	154083
#	167583
#	180633
#	189033
#	200658
#	209733
#
# Disc length: 3310 seconds
# Revision: 1
# Processed by: cddbd v1.5.2PL0 Copyright (c) Steve Scherf et al.
# Submitted via: dBpowerAMP V12.0
#
DISCID=d00cec11
DTITLE=Göran Söllscher / Here, There And Everywhere; Göran Söllscher Plays the Beatles
DYEAR=1995
DGENRE=Classical
TTITLE0=Honey Pie  (arr. Börje Sandquist)
TTITLE1=Because  (arr. Göran Söllscher)
TTITLE2=She Came in Through the Bathroom Window  (arr. Börje Sandquist)
TTITLE3=Here, There and Everywhere  (arr. Toru Takemitsu)
TTITLE4=Hey Jude  (arr. Toru Takemitsu)
TTITLE5=Michelle  (arr. Toru Takemitsu)
TTITLE6=Yesterday  (arr. Toru Takemitsu)
TTITLE7=Eleanor Rigby  (arr. Göran Söllscher)
TTITLE8=The Fool on the Hill  (arr. Göran Söllscher)
TTITLE9=Yellow Submarine  (arr. Börje Sandquist)
TTITLE10=If I Fell  (arr. Börje Sandquist)
TTITLE11=I Me Mine  (arr. Börje Sandquist)
TTITLE12=Girl  (arr. Göran Söllscher)
TTITLE13=Day Tripper  (arr. Göran Söllscher)
TTITLE14=And I Love Her  (arr. Noriyasu Takeuchiu)
TTITLE15=Here Comes the Sun  (arr. Göran Söllscher)
TTITLE16=Across the Universe  (arr. Börje Sandquist)
EXTD=
EXTT0=
EXTT1=
EXTT2=
EXTT3=
EXTT4=
EXTT5=
EXTT6=
EXTT7=
EXTT8=
EXTT9=
EXTT10=
EXTT11=
EXTT12=
EXTT13=
EXTT14=
EXTT15=
EXTT16=
PLAYORDER=
.
